<?xml version="1.0" encoding="UTF-8"?>
<svg id="Ebene_2" data-name="Ebene 2" xmlns="http://www.w3.org/2000/svg" viewBox="0 0 60.03 59.54">
  <defs>
    <style>
      .cls-1 {
        fill: #376eb5;
      }

      .cls-1, .cls-2 {
        stroke-width: 0px;
      }

      .cls-2 {
        fill: #fab42d;
      }
    </style>
  </defs>
  <g id="Ebene_1-2" data-name="Ebene 1">
    <g>
      <path class="cls-1" d="M0,27.83c.52.03,1.04.05,1.57.08.1,0,.24-.02.28.04.37.47.06,1.02.14,1.53.05.33-.2.31-.42.32-.52.01-1.05.02-1.57.03,0-.67,0-1.33,0-2Z"/>
      <path class="cls-1" d="M52.18,26.77s.08,0,.12.01c.31.09.69-.31.91,0,.16.23.13.6.17.91,1.4,10.21-4.21,20.37-13.62,24.68-13.86,6.34-29.88-1.6-33.24-16.49C3.56,22.85,12.15,9.86,25.36,7.36c3.36-.63,6.69-.54,10.01.24.46.11.57.29.4.72-.16.41-.08,1.01-.42,1.24-.33.22-.82-.11-1.23-.19-2.64-.52-5.28-.58-7.94-.13-.32.05-.46.16-.41.48.31,2.1-.67,3.44-2.51,4.28-.42.2-.81.47-1.21.72-.7.43-.83.83-.52,1.57.51,1.21,1.04,2.41,1.54,3.61.62,1.49.3,2.75-.96,3.76-.81.65-1.66,1.26-2.42,1.95-.96.87-2.02,1.26-3.32,1.18-1.16-.07-1.17-.01-.85,1.09.29,1.03.6,2.06.89,3.1.44,1.58-.43,2.73-2.06,2.74-.27,0-.55,0-.82,0-.82,0-1.42-.38-1.8-1.1-.37-.71-.73-1.43-1.07-2.15-.23-.48-.58-.68-1.12-.69-1.61-.02-1.62-.03-1.58,1.58.09,3.82,1.16,7.35,3.1,10.64.2.34.34.43.7.18.8-.56,1.63-1.09,2.46-1.59.49-.3.69-.71.68-1.27-.01-.55-.01-1.1,0-1.64.03-1.11.83-1.91,1.94-1.95.68-.02,1.37-.02,2.06,0,.32.01.5-.1.66-.36.26-.44.55-.86.84-1.27.62-.88,1.45-1.34,2.54-1.33.9,0,1.8,0,2.7,0,1.11,0,1.97.48,2.56,1.41.75,1.19,1.45,2.41,2.17,3.63.29.5.4,1.05.4,1.63,0,1.43,0,2.86,0,4.29,0,.88-.3,1.65-.93,2.27-.9.9-1.8,1.8-2.7,2.7-.61.61-1.34.93-2.21.92-.49,0-.99.05-1.47-.01-1.08-.14-1.94.3-2.73,1.01,1.64.8,3.35,1.32,5.13,1.63,4.99.88,9.73.12,14.22-2.23.48-.25.51-.44.22-.86-.45-.64-.83-1.33-1.24-1.99-1.4-2.27-.8-4.55.68-6.48.51-.67,1.28-.95,2.12-.97.12,0,.23,0,.35,0q1.78,0,2.42-1.62c.14-.34.23-.71.41-1.03.63-1.13.65-2.36.58-3.59-.04-.67-.67-.93-1.06-1.33-.26-.27-.54.09-.78.2-.59.26-1.16.57-1.74.86-.9.44-1.81.45-2.71.01-1.32-.64-2.63-1.3-3.93-1.97-1.11-.57-1.66-1.51-1.67-2.76,0-.74-.01-1.49,0-2.23,0-.28-.07-.39-.37-.45-1.77-.38-2.53-1.42-2.62-3.22-.07-1.54.46-2.69,1.75-3.53.75-.49,1.46-1.05,2.16-1.62.34-.28.58-.33.8.11.08.15.19.3.36.37.03.07.04.16.08.21.4.42.31.69-.17,1-.67.44-1.26,1-1.94,1.42-.83.51-1.16,1.18-1.05,2.15.08.75.34,1.09,1.1,1.16,1.12.1,1.85.89,1.86,2.02,0,.84.02,1.68,0,2.52-.01.54.21.88.69,1.11,1.23.6,2.45,1.22,3.67,1.84.42.21.82.21,1.23,0,.73-.37,1.47-.74,2.2-1.11.49-.25,1.02-.38,1.53-.13,1.12.55,2.15,1.35,2.46,2.54.3,1.16.31,2.47-.05,3.66-.37,1.25-.93,2.45-1.45,3.65-.4.91-1.13,1.47-2.11,1.69-.62.14-1.25.06-1.87.07-.36,0-.68.09-.87.39-.82,1.3-1.33,2.54-.32,4.15.35.56.7,1.13,1.05,1.7.45.72.45.71,1.1.2,2.98-2.31,5.27-5.17,6.78-8.63,1.57-3.61,2.13-7.37,1.7-11.28-.13-1.13-.15-1.13.73-1.45ZM28.78,41.51c0-.67,0-1.33,0-2,0-.3-.05-.58-.21-.84-.67-1.12-1.34-2.25-2.02-3.37-.23-.39-.57-.56-1.03-.55-.82.02-1.64.02-2.47,0-.51-.01-.86.19-1.12.61-.28.45-.59.87-.88,1.32-.45.7-1.07,1.06-1.91,1.03-.59-.02-1.18.01-1.76,0-.37-.02-.54.09-.51.49.03.43.02.86,0,1.29-.04,1.08-.43,1.98-1.35,2.6-.88.58-1.76,1.16-2.66,1.71-.35.21-.34.37-.09.67,1.46,1.73,3.08,3.28,4.98,4.51,1.08.7.78.62,1.72.02.35-.22.69-.44,1.02-.69.69-.52,1.48-.69,2.31-.7.67,0,1.33-.01,2,0,.4,0,.72-.12,1-.4.84-.85,1.68-1.7,2.53-2.53.3-.29.44-.63.43-1.05,0-.7,0-1.41,0-2.11ZM23.76,10.61c0-.84,0-.84-.73-.6-3.2,1.04-6.02,2.73-8.42,5.07-3.26,3.17-5.34,7.01-6.24,11.47-.31,1.55-.3,1.28,1.01,1.25,1.51-.03,2.54.62,3.16,1.97.26.57.56,1.12.84,1.68.22.44.62.31.93.24.33-.08.11-.39.05-.59-.35-1.24-.72-2.48-1.05-3.72-.37-1.38.55-2.56,1.99-2.59.49-.01.98-.03,1.47,0,.55.04.98-.15,1.39-.49.9-.75,1.82-1.49,2.74-2.21.49-.38.61-.82.36-1.39-.55-1.26-1.08-2.51-1.61-3.78-.63-1.5-.12-3.02,1.27-3.85.72-.43,1.44-.88,2.16-1.3.49-.28.77-.65.68-1.17Z"/>
      <path class="cls-1" d="M37.37,16.54c.21-.76.13-1.56.19-2.33.14-1.81.2-3.63.32-5.45.02-.31-.08-.51-.29-.72-.94-.92-1.87-1.84-2.79-2.78-1.24-1.26-1.28-3.08-.12-4.26,1.18-1.19,3.06-1.17,4.32.06.94.92,1.86,1.85,2.78,2.79.22.23.44.31.77.29,3.05-.19,6.1-.35,9.14-.53,1.63-.1,2.98.46,4.12,1.62.55.56,1.12,1.09,1.77,1.73-3.1,1.19-6.09,2.35-9.15,3.53,1.17,1.17,2.28,2.29,3.4,3.41.16.16.37.11.56.11,1.23,0,2.47,0,3.7,0,.99,0,1.84.31,2.52,1.05.39.42.78.82,1.21,1.2.3.27.29.42-.07.62-.87.49-1.7,1.05-2.58,1.52-.48.26-.45.41-.09.77,1.72,1.74,1.05,4.47-1.25,5.07-1.16.3-2.17-.03-2.98-.92-.31-.34-.49-.37-.69.08-.16.36-.45.64-.54,1.03-.39.42-.63.93-.91,1.42-.25.44-.44.59-.83.13-.35-.42-.76-.79-1.16-1.17-.71-.66-.99-1.48-1-2.42,0-1.23,0-2.47,0-3.7,0-.19.05-.4-.11-.56-1.12-1.11-2.24-2.23-3.41-3.39-.14.37-.27.67-.38.98-.98,2.53-1.96,5.07-2.92,7.6-.15.41-.28.43-.57.12-.48-.52-.99-1-1.49-1.5-.72-.72-1.21-1.58-1.41-2.59-.18-.93,0-1.87-.06-2.81ZM36.81,2.1c-.76,0-1.23.8-.85,1.46.13.22.31.4.49.58,5.85,5.86,11.71,11.71,17.56,17.57.19.19.39.39.64.5.25.11.48.13.74.03.75-.3.88-1.07.25-1.71-1.49-1.5-2.99-2.99-4.48-4.49-4.47-4.47-8.94-8.94-13.41-13.41-.26-.26-.52-.54-.94-.53ZM39.87,10.35c-.06.02-.12.05-.18.07,0,.58.03,1.17,0,1.75-.13,2.1-.31,4.2-.34,6.31,0,.46.11.89.33,1.29.06.11.1.29.26.28.18,0,.16-.2.21-.32.81-2.09,1.62-4.18,2.42-6.28.06-.15.14-.29,0-.43-.9-.89-1.79-1.78-2.69-2.67ZM51.46,5.61c-2.3.13-4.6.25-6.9.38-.13,0-.3-.03-.37.12-.06.15.09.24.18.34.74.75,1.5,1.48,2.23,2.25.22.23.42.2.68.1,2.06-.8,4.12-1.58,6.17-2.37.12-.05.31-.06.32-.22.02-.19-.19-.22-.32-.29-.63-.36-1.31-.32-2-.3ZM49.72,20.28c0,.59,0,1.06,0,1.52,0,.35.01.7.05,1.05.01.11.1.41.28.17.34-.45.6-.96.88-1.44.06-.1,0-.19-.07-.26-.35-.32-.64-.72-1.15-1.05ZM54.06,15.98c.84,1.31,1.05,1.36,2.22.64.08-.05.17-.09.25-.15.11-.09.35-.1.28-.31-.05-.15-.25-.18-.4-.18-.76,0-1.51,0-2.35,0Z"/>
      <path class="cls-2" d="M37.37,16.54c.07.94-.12,1.88.06,2.81.2,1.01.68,1.86,1.41,2.59.5.5,1.01.98,1.49,1.5.29.31.42.29.57-.12.96-2.54,1.94-5.07,2.92-7.6.12-.31.24-.61.38-.98,1.17,1.17,2.3,2.28,3.41,3.39.16.16.11.37.11.56,0,1.23,0,2.47,0,3.7,0,.94.29,1.76,1,2.42.4.37.81.75,1.16,1.17.39.47.58.31.83-.13.28-.49.51-1.01.91-1.42.33.75.5,1.54.56,2.35-.88.32-.85.31-.73,1.45.44,3.91-.12,7.68-1.7,11.28-1.51,3.46-3.79,6.32-6.78,8.63-.66.51-.65.52-1.1-.2-.35-.56-.7-1.13-1.05-1.7-1.01-1.61-.49-2.86.32-4.15.19-.3.51-.38.87-.39.62-.02,1.25.07,1.87-.07.99-.22,1.71-.78,2.11-1.69.52-1.2,1.08-2.4,1.45-3.65.35-1.19.35-2.49.05-3.66-.31-1.18-1.34-1.99-2.46-2.54-.5-.25-1.03-.11-1.53.13-.73.37-1.47.73-2.2,1.11-.41.21-.81.22-1.23,0-1.22-.62-2.44-1.24-3.67-1.84-.48-.23-.7-.58-.69-1.11.02-.84.01-1.68,0-2.52-.01-1.13-.74-1.92-1.86-2.02-.76-.07-1.02-.41-1.1-1.16-.1-.97.22-1.64,1.05-2.15.68-.42,1.27-.98,1.94-1.42.48-.31.57-.59.17-1-.05-.05-.06-.14-.08-.21.41-.56.98-.94,1.53-1.34Z"/>
      <path class="cls-1" d="M29.68.96q0,.98-.99,1.04t-.97-.84Q27.66.03,28.8,0q.88-.02.89.95Z"/>
      <path class="cls-1" d="M57.53,30.74c.05-.98.05-.99,1.02-.98,1.12.02,1.02-.24.98,1.04-.03.99-.05.99-1.07.92-.02,0-.04,0-.06,0q-.91-.05-.86-.98Z"/>
      <path class="cls-1" d="M31.75,58.5q.09.99-.9,1.03t-1.06-1.01.93-.98,1.04.95Z"/>
      <path class="cls-1" d="M2.49,24.44c0,.06-.01.08-.02.1-.14.48.03,1.24-.33,1.41-.44.2-1.09-.06-1.64-.12-.23-.02-.22-.16-.19-.34.08-.44.15-.88.21-1.32.04-.25.13-.39.42-.32.43.1.88.18,1.31.28.19.04.35.12.23.32Z"/>
      <path class="cls-1" d="M25.85,1.95c.05.23-.06.36-.3.37-.5.02-1.13.43-1.45.16-.39-.33-.28-1.05-.44-1.58-.06-.2.03-.29.22-.31.1-.01.19-.02.29-.04,1.57-.32,1.67-.23,1.68,1.41Z"/>
      <path class="cls-1" d="M22.14,2.86c.03.23-.16.23-.3.28-1.48.55-1.47.55-2-1.02-.09-.27-.11-.43.22-.51.43-.11.86-.27,1.28-.4.13-.04.29-.11.34.07.16.52.3,1.05.45,1.57Z"/>
      <path class="cls-1" d="M3.53,20.61c-.18.57-.33,1.05-.48,1.54-.06.19-.19.16-.33.12-.17-.05-.34-.1-.5-.15-.37-.12-1.05-.15-1.04-.36.02-.58.29-1.16.48-1.73.05-.17.2-.09.3-.06.46.15.92.32,1.38.48.12.04.21.11.2.17Z"/>
      <path class="cls-1" d="M43.42,56.06c.02.16-.05.19-.12.23-.47.23-.95.46-1.42.69-.15.07-.26.06-.32-.12-.03-.09-.08-.18-.12-.27q-.65-1.46.86-2.01c.11-.04.24-.14.31-.01.29.51.55,1.03.8,1.5Z"/>
      <path class="cls-1" d="M57.7,39.69c-.54-.2-1.07-.39-1.6-.58-.02,0-.05-.02-.05-.02-.03-.58.27-1.07.43-1.6.1-.34.4-.12.6-.07,1.41.37,1.42.38.93,1.78-.06.18-.02.45-.31.5Z"/>
      <path class="cls-1" d="M12.16,8.26c-.16.15-.3.29-.45.4-.34.25-.6.79-.98.73-.32-.05-.56-.56-.87-.82-.44-.36-.42-.6.03-.97,1.05-.87,1.03-.9,1.9.17.12.15.24.31.37.48Z"/>
      <path class="cls-1" d="M56.99,41.85c-.22.45-.47.97-.73,1.49-.06.11-.17.06-.26.01-.09-.05-.17-.09-.26-.13-1.36-.69-1.35-.69-.64-2.07.12-.24.22-.32.48-.19.38.19.79.34,1.18.52.12.05.27.09.23.37Z"/>
      <path class="cls-1" d="M2.97,37.13c.05.12,0,.21-.14.25-.11.03-.22.07-.34.1-1.51.43-1.6.36-1.79-1.24-.03-.27.03-.38.31-.43.42-.06.84-.16,1.26-.26.17-.04.3-.07.35.15.11.47.23.94.35,1.43Z"/>
      <path class="cls-1" d="M57.68,33.59c.5.1,1.25-.07,1.47.32.27.46-.11,1.12-.18,1.69-.02.17-.14.22-.3.17-.07-.02-.15-.04-.23-.06-.47-.12-1.12-.02-1.36-.36-.24-.35.13-.92.15-1.4.01-.31.14-.43.45-.36Z"/>
      <path class="cls-1" d="M22.56,56.62c.44.1.86.2,1.28.29.21.05.31.15.25.37,0,.04-.01.08-.02.12-.24,1.58-.49,1.71-2.02,1.13-.18-.07-.27-.12-.21-.32.14-.47.26-.94.38-1.41.05-.19.18-.23.33-.18Z"/>
      <path class="cls-1" d="M34.15,59.22c-.23.05-.33-.05-.34-.27,0-.08-.04-.15-.04-.23,0-.46-.37-1.11-.08-1.34.37-.3,1.02-.26,1.55-.37.13-.03.22.01.25.16.02.11.07.23.08.34.05.46.43,1.07.18,1.33-.36.38-1.06.26-1.6.38Z"/>
      <path class="cls-1" d="M27.85,58.32c-.11,1.23.23,1.21-1.21,1.05-.88-.1-.88-.12-.77-1.03q.12-1.04,1.16-.92c.06,0,.12.02.18.01.59-.08.77.19.65.74-.02.07,0,.16,0,.15Z"/>
      <path class="cls-1" d="M20.43,56.19c-.16.45-.35.98-.55,1.51-.04.12-.15.1-.25.07-.07-.03-.14-.06-.22-.08-1.59-.56-1.61-.6-.82-2.1.07-.13.11-.32.33-.23.45.18.91.36,1.36.54.1.04.18.09.14.3Z"/>
      <path class="cls-1" d="M4.24,40.74c0,.28-.24.3-.41.35-.46.15-1,.71-1.34.41-.39-.34-.49-1.03-.7-1.57-.05-.14.09-.19.2-.23.18-.06.36-.15.55-.19.37-.08.83-.51,1.05-.25.34.39.44.98.64,1.48Z"/>
      <path class="cls-1" d="M5.93,15.36c-.52-.32-1.03-.62-1.52-.94-.1-.06-.05-.17,0-.26.05-.08.1-.17.15-.25.85-1.39,1.09-1.41,2.24-.26.11.11.18.2.08.35-.27.41-.53.82-.8,1.22-.04.06-.11.09-.16.14Z"/>
      <path class="cls-1" d="M8.2,47.3c-.06.07-.11.15-.18.2-.36.3-.73.59-1.08.9-.17.15-.3.14-.43-.05-.02-.03-.05-.06-.07-.09-1.09-1.3-1.08-1.33.34-2.23.22-.14.36-.16.52.07.28.4.58.78.89,1.19Z"/>
      <path class="cls-1" d="M16.91,54.67c-.22.41-.48.92-.75,1.41-.05.1-.16.08-.26.03-.07-.04-.14-.07-.21-.11-1.49-.76-1.52-.91-.48-2.24.09-.11.14-.23.32-.13.42.24.85.48,1.27.72.09.05.16.11.1.32Z"/>
      <path class="cls-1" d="M9.41,10.86c-.23.26-.42.48-.62.69q-.64.73-1.38.12t-.1-1.45,1.37-.05c.24.22.47.44.73.68Z"/>
      <path class="cls-1" d="M38.9,56.02c.14-.04.22.03.27.16.02.05.04.11.07.16.62,1.54.57,1.63-1.06,2.01-.26.06-.41.03-.46-.26-.02-.11-.08-.22-.09-.34-.05-.42-.49-.93-.19-1.2.36-.32.96-.37,1.46-.54Z"/>
      <path class="cls-1" d="M5.02,17.11c-.25.54-.47,1.02-.71,1.49-.08.16-.24.1-.36.03-.48-.25-1.26-.28-1.4-.71-.14-.46.38-1.01.61-1.52.08-.17.17-.25.36-.15.45.24.9.47,1.35.7.09.04.17.1.15.16Z"/>
      <path class="cls-1" d="M.16,32.58c-.12-.53-.06-.76.46-.77,1.48-.04,1.59-.06,1.55,1.41-.02.88-.99.55-1.47.56-.98.03-.24-.93-.54-1.2Z"/>
      <path class="cls-1" d="M5.02,42.65c.21,0,.24.18.29.31.18.46.82.91.58,1.3-.28.44-.94.66-1.45.94-.15.08-.21-.13-.27-.24-.22-.37-.42-.75-.64-1.12-.14-.23-.14-.37.13-.5.46-.21.9-.46,1.36-.69Z"/>
      <path class="cls-1" d="M53.96,46.85c-.44-.33-.93-.67-1.4-1.05-.1-.08.05-.21.1-.3.83-1.4.87-1.4,2.24-.46.23.16.28.27.11.5-.26.36-.49.75-.74,1.12-.06.09-.11.22-.32.19Z"/>
      <path class="cls-1" d="M52.83,48.59c-.21.26-.41.5-.61.73q-.67.78-1.4.1t-.06-1.44,1.3-.1c.2.16.4.32.59.48.07.06.12.14.2.23Z"/>
      <path class="cls-1" d="M13.74,52.56c-.36.5-.7.97-1.05,1.44-.05.07-.14.05-.21,0-.06-.04-.13-.09-.19-.13-1.38-.93-1.39-1.09-.23-2.28.12-.12.21-.23.38-.09.39.3.78.59,1.17.88.05.04.08.12.13.18Z"/>
      <path class="cls-1" d="M46.9,54c-.04.07-.05.14-.09.16-.47.31-.94.63-1.41.93-.13.08-.22,0-.28-.11-.05-.08-.1-.17-.15-.25q-.84-1.36.6-2.11c.08-.04.18-.17.25-.07.37.47.72.96,1.08,1.45Z"/>
      <path class="cls-1" d="M50.03,51.48c.01.12-.08.17-.15.23-.35.31-.71.61-1.05.93-.18.17-.32.19-.47-.03-.03-.05-.07-.09-.11-.14q-1.02-1.22.25-2.18c.13-.1.24-.23.39-.06.36.38.72.77,1.08,1.16.03.03.04.06.07.1Z"/>
      <path class="cls-1" d="M14.05,4.47c.17-.04.24,0,.28.07.28.45.55.9.82,1.34.08.12.04.22-.06.3-.05.04-.1.07-.15.1-.41.26-.9.79-1.22.7-.5-.13-.69-.83-1.04-1.27-.06-.07-.16-.18-.06-.25.49-.35.99-.69,1.42-.98Z"/>
      <path class="cls-1" d="M17.01,5.08c-.06-.04-.15-.06-.18-.12-.25-.46-.49-.93-.73-1.4-.11-.21.07-.26.2-.34,1.41-.85,1.68-.75,2.2.81.04.11.13.24,0,.31-.48.25-.98.48-1.49.74Z"/>
      <path class="cls-1" d="M10.8,50.1c-.12.14-.23.28-.35.4-.99,1.09-.98,1.08-2.02.04-.31-.31-.36-.49,0-.81,1.06-.96,1.05-.98,2.08.06.1.1.19.2.29.31Z"/>
      <path class="cls-2" d="M28.78,41.51c0,.7,0,1.41,0,2.11,0,.41-.13.75-.43,1.05-.85.84-1.7,1.68-2.53,2.53-.28.29-.6.41-1,.4-.67-.01-1.33,0-2,0-.84,0-1.63.19-2.31.7-.33.25-.68.46-1.02.69-.94.61-.64.69-1.72-.02-1.9-1.24-3.52-2.78-4.98-4.51-.25-.3-.26-.46.09-.67.9-.55,1.78-1.13,2.66-1.71.92-.61,1.31-1.52,1.35-2.6.02-.43.03-.86,0-1.29-.03-.4.14-.5.51-.49.59.02,1.17,0,1.76,0,.85.03,1.46-.34,1.91-1.03.29-.44.6-.87.88-1.32.26-.42.61-.62,1.12-.61.82.02,1.64.02,2.47,0,.46-.01.8.16,1.03.55.67,1.12,1.34,2.25,2.02,3.37.16.26.21.54.21.84-.01.67,0,1.33,0,2Z"/>
      <path class="cls-2" d="M23.76,10.61c.09.52-.19.89-.68,1.17-.73.42-1.44.87-2.16,1.3-1.39.83-1.9,2.36-1.27,3.85.53,1.26,1.07,2.52,1.61,3.78.25.57.14,1-.36,1.39-.93.72-1.84,1.46-2.74,2.21-.41.34-.84.53-1.39.49-.49-.04-.98-.02-1.47,0-1.44.03-2.35,1.21-1.99,2.59.33,1.25.7,2.48,1.05,3.72.06.2.28.5-.05.59-.3.08-.71.21-.93-.24-.28-.56-.58-1.11-.84-1.68-.62-1.36-1.64-2.01-3.16-1.97-1.31.03-1.33.3-1.01-1.25.9-4.46,2.98-8.3,6.24-11.47,2.41-2.34,5.22-4.03,8.42-5.07.73-.24.73-.24.73.6Z"/>
      <path class="cls-2" d="M36.81,2.1c.42-.01.67.27.94.53,4.47,4.47,8.94,8.94,13.41,13.41,1.49,1.49,2.99,2.99,4.48,4.49.63.63.51,1.41-.25,1.71-.25.1-.49.09-.74-.03-.26-.12-.45-.31-.64-.5-5.85-5.86-11.71-11.71-17.56-17.57-.18-.18-.36-.37-.49-.58-.39-.66.09-1.47.85-1.46Z"/>
      <path class="cls-2" d="M39.87,10.35c.9.89,1.79,1.78,2.69,2.67.14.14.06.28,0,.43-.81,2.09-1.61,4.19-2.42,6.28-.04.12-.03.31-.21.32-.16,0-.2-.17-.26-.28-.22-.4-.33-.83-.33-1.29.03-2.11.21-4.21.34-6.31.04-.58,0-1.16,0-1.75.06-.02.12-.05.18-.07Z"/>
      <path class="cls-2" d="M51.46,5.61c.68-.03,1.37-.07,2,.3.13.07.33.1.32.29-.01.16-.2.17-.32.22-2.06.79-4.12,1.58-6.17,2.37-.26.1-.45.13-.68-.1-.73-.76-1.49-1.5-2.23-2.25-.09-.09-.24-.19-.18-.34.06-.15.23-.11.37-.12,2.3-.13,4.6-.25,6.9-.38Z"/>
      <path class="cls-2" d="M49.72,20.28c.51.33.8.72,1.15,1.05.07.07.13.15.07.26-.29.48-.55.99-.88,1.44-.18.24-.27-.07-.28-.17-.04-.35-.05-.7-.05-1.05,0-.47,0-.93,0-1.52Z"/>
      <path class="cls-2" d="M54.06,15.98c.84,0,1.6,0,2.35,0,.15,0,.35.03.4.18.07.2-.17.22-.28.31-.08.06-.17.1-.25.15-1.18.72-1.39.67-2.22-.64Z"/>
    </g>
  </g>
</svg>